<svg xmlns="http://www.w3.org/2000/svg" version="1.1" xmlns:xlink="http://www.w3.org/1999/xlink" xmlns:svgjs="http://svgjs.dev/svgjs" width="370" height="389"><svg id="SvgjsSvg1003" data-name="Ebene 2" xmlns="http://www.w3.org/2000/svg" viewBox="0 0 370 389">
  <defs>
    <style>
      .cls-1 {
        fill: #fc9d6b;
      }
    </style>
  </defs>
  <g id="SvgjsG1002" data-name="Ebene 1">
    <path class="cls-1" d="M314,115H56c-30.93,0-56,25.07-56,56v142h370v-142c0-30.93-25.07-56-56-56ZM100,233.5c-19.05,0-34.5-15.45-34.5-34.5s15.45-34.5,34.5-34.5,34.5,15.45,34.5,34.5-15.45,34.5-34.5,34.5ZM270,233.5c-19.05,0-34.5-15.45-34.5-34.5s15.45-34.5,34.5-34.5,34.5,15.45,34.5,34.5-15.45,34.5-34.5,34.5Z"></path>
    <rect class="cls-1" x="59" y="326" width="252" height="25" rx="12.5" ry="12.5"></rect>
    <rect class="cls-1" x="96" y="364" width="178" height="25" rx="12.5" ry="12.5"></rect>
    <g>
      <rect class="cls-1" x="172.5" y="23" width="25" height="78" rx="12.5" ry="12.5"></rect>
      <circle class="cls-1" cx="185" cy="24" r="24"></circle>
    </g>
  </g>
</svg><style>@media (prefers-color-scheme: light) { :root { filter: none; } }
@media (prefers-color-scheme: dark) { :root { filter: none; } }
</style></svg>