<?xml version="1.0" encoding="UTF-8"?>
<svg id="Ebene_2" data-name="Ebene 2" xmlns="http://www.w3.org/2000/svg" viewBox="0 0 370 389">
  <defs>
    <style>
      .cls-1 {
        fill: #fc9d6b;
      }
    </style>
  </defs>
  <g id="Ebene_1-2" data-name="Ebene 1">
    <path class="cls-1" d="M314,115H56c-30.93,0-56,25.07-56,56v142h370v-142c0-30.93-25.07-56-56-56ZM100,233.5c-19.05,0-34.5-15.45-34.5-34.5s15.45-34.5,34.5-34.5,34.5,15.45,34.5,34.5-15.45,34.5-34.5,34.5ZM270,233.5c-19.05,0-34.5-15.45-34.5-34.5s15.45-34.5,34.5-34.5,34.5,15.45,34.5,34.5-15.45,34.5-34.5,34.5Z"/>
    <rect class="cls-1" x="59" y="326" width="252" height="25" rx="12.5" ry="12.5"/>
    <rect class="cls-1" x="96" y="364" width="178" height="25" rx="12.5" ry="12.5"/>
    <g>
      <rect class="cls-1" x="172.5" y="23" width="25" height="78" rx="12.5" ry="12.5"/>
      <circle class="cls-1" cx="185" cy="24" r="24"/>
    </g>
  </g>
</svg>